<svg width="1440" height="330" viewBox="0 0 1440 330" fill="none" xmlns="http://www.w3.org/2000/svg">
<g clip-path="url(#clip0_389_81)">
<path d="M72.541 20.2266C72.541 19.0247 72.5872 17.8691 72.6797 16.7598C72.8646 15.5579 73.1882 14.4948 73.6504 13.5703C74.2051 12.6458 74.8984 11.9062 75.7305 11.3516C76.6549 10.7969 77.8105 10.5195 79.1973 10.5195C80.2142 10.5195 81.0462 10.8431 81.6934 11.4902C82.3405 12.0449 82.849 12.7845 83.2188 13.709C83.681 14.6335 83.9583 15.6966 84.0508 16.8984C84.2357 18.0078 84.3281 19.1172 84.3281 20.2266V80.9648H207.053V20.2266C207.053 19.0247 207.099 17.8691 207.191 16.7598C207.284 15.5579 207.515 14.4948 207.885 13.5703C208.347 12.6458 208.948 11.9062 209.688 11.3516C210.427 10.7969 211.49 10.5195 212.877 10.5195C214.264 10.5195 215.327 10.7969 216.066 11.3516C216.898 11.9062 217.499 12.6458 217.869 13.5703C218.331 14.4948 218.609 15.5579 218.701 16.7598C218.794 17.8691 218.84 19.0247 218.84 20.2266V155.293C218.84 156.495 218.794 157.697 218.701 158.898C218.609 160.008 218.331 161.025 217.869 161.949C217.499 162.874 216.945 163.613 216.205 164.168C215.465 164.723 214.402 165 213.016 165C211.629 165 210.52 164.723 209.688 164.168C208.948 163.613 208.347 162.874 207.885 161.949C207.515 161.025 207.284 160.008 207.191 158.898C207.099 157.697 207.053 156.495 207.053 155.293V89.5625H84.3281V155.293C84.3281 156.402 84.2357 157.558 84.0508 158.76C83.8659 159.869 83.5423 160.886 83.0801 161.811C82.7103 162.735 82.1556 163.521 81.416 164.168C80.7689 164.723 79.9368 165 78.9199 165C77.5332 165 76.3776 164.723 75.4531 164.168C74.6211 163.613 73.974 162.874 73.5117 161.949C73.1419 161.025 72.8646 160.008 72.6797 158.898C72.5872 157.697 72.541 156.495 72.541 155.293V20.2266ZM448.231 160.146C448.231 161.533 448 162.55 447.538 163.197C447.075 163.844 446.428 164.307 445.596 164.584C444.857 164.861 443.932 165 442.823 165C441.713 165 440.465 165 439.079 165H309.559C308.635 165 307.941 164.954 307.479 164.861C307.017 164.769 306.647 164.538 306.37 164.168C306.185 163.798 306.046 163.336 305.954 162.781C305.954 162.134 305.954 161.256 305.954 160.146V17.0371C305.954 15.6504 305.954 14.541 305.954 13.709C306.046 12.877 306.231 12.2298 306.508 11.7676C306.786 11.3053 307.248 10.9818 307.895 10.7969C308.635 10.612 309.698 10.5195 311.084 10.5195H437.692C439.079 10.5195 440.373 10.5195 441.575 10.5195C442.776 10.5195 443.84 10.6582 444.764 10.9355C445.781 11.2129 446.567 11.6751 447.121 12.3223C447.676 12.9694 447.954 13.9863 447.954 15.373C447.954 16.4824 447.676 17.3607 447.121 18.0078C446.567 18.5625 445.781 18.9785 444.764 19.2559C443.84 19.5332 442.776 19.6719 441.575 19.6719C440.373 19.6719 439.079 19.6719 437.692 19.6719H317.741V80.4102H436.998C439.032 80.4102 440.743 80.6875 442.129 81.2422C443.516 81.7969 444.209 82.9987 444.209 84.8477C444.209 86.8815 443.608 88.222 442.407 88.8691C441.297 89.5163 439.818 89.8398 437.969 89.8398H317.741V155.848H437.969C439.356 155.848 440.65 155.848 441.852 155.848C443.054 155.848 444.117 155.986 445.041 156.264C446.058 156.541 446.844 157.003 447.399 157.65C447.954 158.205 448.231 159.037 448.231 160.146ZM606.206 82.3516L674.987 13.4316C676.836 11.5827 678.685 10.6582 680.534 10.6582C681.828 10.6582 682.845 11.1204 683.585 12.0449C684.417 12.9694 684.833 14.0788 684.833 15.373C684.833 16.1126 684.648 16.9447 684.278 17.8691C683.908 18.7936 683.307 19.6719 682.475 20.5039L613.417 89.1465L683.723 154.6C684.925 155.709 685.757 156.865 686.22 158.066C686.774 159.176 687.052 160.193 687.052 161.117C687.052 162.227 686.682 163.151 685.942 163.891C685.295 164.63 684.417 165 683.307 165C681.274 165 679.101 163.891 676.79 161.672L606.206 95.9414L535.622 161.811C534.235 163.105 533.033 163.983 532.016 164.445C530.999 164.815 530.029 165 529.104 165C527.902 165 526.932 164.676 526.192 164.029C525.545 163.29 525.221 162.365 525.221 161.256C525.221 159.13 526.377 156.957 528.688 154.738L598.995 89.1465L529.936 20.5039C528.272 18.8398 527.44 17.1296 527.44 15.373C527.44 14.0788 527.856 12.9694 528.688 12.0449C529.52 11.1204 530.583 10.6582 531.878 10.6582C533.727 10.6582 535.576 11.5827 537.425 13.4316L606.206 82.3516ZM963.036 87.4824C963.036 102.274 961.095 114.616 957.212 124.508C953.329 134.4 947.551 142.35 939.878 148.359C932.205 154.368 922.637 158.667 911.173 161.256C899.802 163.752 886.582 165 871.513 165H776.107C774.72 165 773.657 165 772.917 165C772.27 164.908 771.762 164.723 771.392 164.445C771.022 164.076 770.791 163.567 770.698 162.92C770.698 162.273 770.698 161.348 770.698 160.146V15.6504C770.698 14.2637 770.698 13.2467 770.698 12.5996C770.791 11.86 771.022 11.3516 771.392 11.0742C771.762 10.7969 772.316 10.6582 773.056 10.6582C773.888 10.5658 774.997 10.5195 776.384 10.5195H871.513C886.582 10.5195 899.802 11.8138 911.173 14.4023C922.637 16.9909 932.205 21.3359 939.878 27.4375C947.551 33.4466 953.329 41.3509 957.212 51.1504C961.095 60.9499 963.036 73.0605 963.036 87.4824ZM951.249 87.4824C951.249 75.5566 949.909 65.3411 947.228 56.8359C944.547 48.2383 940.109 41.2122 933.915 35.7578C927.721 30.2109 919.54 26.1432 909.37 23.5547C899.201 20.9661 886.582 19.6719 871.513 19.6719H782.486V155.848H871.513C886.582 155.848 899.201 154.553 909.37 151.965C919.54 149.376 927.721 145.355 933.915 139.9C940.109 134.354 944.547 127.281 947.228 118.684C949.909 109.993 951.249 99.5931 951.249 87.4824ZM1082.18 19.6719H1032.68C1031.48 19.6719 1030.27 19.6719 1029.07 19.6719C1027.87 19.6719 1026.76 19.5332 1025.74 19.2559C1024.82 18.9785 1024.03 18.5625 1023.39 18.0078C1022.83 17.3607 1022.55 16.4824 1022.55 15.373C1022.55 13.9863 1022.88 12.9694 1023.53 12.3223C1024.17 11.6751 1024.96 11.2129 1025.88 10.9355C1026.9 10.6582 1028.01 10.5195 1029.21 10.5195C1030.41 10.5195 1031.57 10.5195 1032.68 10.5195H1143.48C1144.86 10.5195 1146.16 10.5195 1147.36 10.5195C1148.56 10.5195 1149.58 10.6582 1150.41 10.9355C1151.33 11.2129 1152.07 11.6751 1152.63 12.3223C1153.18 12.9694 1153.46 13.8939 1153.46 15.0957C1153.46 16.39 1153.18 17.3607 1152.63 18.0078C1152.07 18.5625 1151.33 18.9785 1150.41 19.2559C1149.58 19.5332 1148.56 19.6719 1147.36 19.6719C1146.16 19.6719 1144.86 19.6719 1143.48 19.6719H1093.97V155.848H1143.48C1144.86 155.848 1146.16 155.848 1147.36 155.848C1148.56 155.848 1149.58 155.986 1150.41 156.264C1151.33 156.541 1152.07 157.003 1152.63 157.65C1153.18 158.298 1153.46 159.222 1153.46 160.424C1153.46 161.718 1153.18 162.689 1152.63 163.336C1152.07 163.891 1151.33 164.307 1150.41 164.584C1149.58 164.861 1148.56 165 1147.36 165C1146.16 165 1144.86 165 1143.48 165H1032.68C1031.57 165 1030.41 165 1029.21 165C1028.01 165 1026.9 164.861 1025.88 164.584C1024.96 164.307 1024.17 163.844 1023.53 163.197C1022.88 162.55 1022.55 161.533 1022.55 160.146C1022.55 159.037 1022.83 158.205 1023.39 157.65C1024.03 157.003 1024.82 156.541 1025.74 156.264C1026.76 155.986 1027.87 155.848 1029.07 155.848C1030.27 155.848 1031.48 155.848 1032.68 155.848H1082.18V19.6719ZM1288.55 17.5918C1290.03 14.9108 1291.19 13.0618 1292.02 12.0449C1292.85 11.028 1294.1 10.5195 1295.77 10.5195C1297.06 10.5195 1298.17 11.028 1299.09 12.0449C1300.11 12.9694 1301.4 14.8184 1302.98 17.5918L1379.52 155.709C1380.54 157.558 1381.05 159.361 1381.05 161.117C1381.05 162.781 1380.59 164.076 1379.66 165C1378.74 165.924 1377.63 166.387 1376.33 166.387C1375.04 166.387 1373.75 165.924 1372.45 165C1371.25 164.168 1370 162.596 1368.71 160.285L1345.13 117.574H1246.4L1222.55 160.84C1221.53 162.781 1220.33 164.168 1218.94 165C1217.65 165.924 1216.35 166.387 1215.06 166.387C1213.49 166.387 1212.33 165.832 1211.59 164.723C1210.85 163.613 1210.48 162.134 1210.48 160.285C1210.48 159.546 1210.62 158.806 1210.9 158.066C1211.27 157.327 1211.68 156.495 1212.15 155.57L1288.55 17.5918ZM1341.11 109.393L1295.77 26.6055L1250.42 109.393H1341.11Z" fill="#00FFF5"/>
<path d="M72.541 309.773C72.541 310.975 72.5872 312.131 72.6797 313.24C72.8646 314.442 73.1882 315.505 73.6504 316.43C74.2051 317.354 74.8984 318.094 75.7305 318.648C76.6549 319.203 77.8105 319.48 79.1973 319.48C80.2142 319.48 81.0462 319.157 81.6934 318.51C82.3405 317.955 82.849 317.215 83.2188 316.291C83.681 315.367 83.9583 314.303 84.0508 313.102C84.2357 311.992 84.3281 310.883 84.3281 309.773V249.035H207.053V309.773C207.053 310.975 207.099 312.131 207.191 313.24C207.284 314.442 207.515 315.505 207.885 316.43C208.347 317.354 208.948 318.094 209.688 318.648C210.427 319.203 211.49 319.48 212.877 319.48C214.264 319.48 215.327 319.203 216.066 318.648C216.898 318.094 217.499 317.354 217.869 316.43C218.331 315.505 218.609 314.442 218.701 313.24C218.794 312.131 218.84 310.975 218.84 309.773V174.707C218.84 173.505 218.794 172.303 218.701 171.102C218.609 169.992 218.331 168.975 217.869 168.051C217.499 167.126 216.945 166.387 216.205 165.832C215.465 165.277 214.402 165 213.016 165C211.629 165 210.52 165.277 209.688 165.832C208.948 166.387 208.347 167.126 207.885 168.051C207.515 168.975 207.284 169.992 207.191 171.102C207.099 172.303 207.053 173.505 207.053 174.707V240.438H84.3281V174.707C84.3281 173.598 84.2357 172.442 84.0508 171.24C83.8659 170.131 83.5423 169.114 83.0801 168.189C82.7103 167.265 82.1556 166.479 81.416 165.832C80.7689 165.277 79.9368 165 78.9199 165C77.5332 165 76.3776 165.277 75.4531 165.832C74.6211 166.387 73.974 167.126 73.5117 168.051C73.1419 168.975 72.8646 169.992 72.6797 171.102C72.5872 172.303 72.541 173.505 72.541 174.707V309.773ZM448.231 169.854C448.231 168.467 448 167.45 447.538 166.803C447.075 166.156 446.428 165.693 445.596 165.416C444.857 165.139 443.932 165 442.823 165C441.713 165 440.465 165 439.079 165H309.559C308.635 165 307.941 165.046 307.479 165.139C307.017 165.231 306.647 165.462 306.37 165.832C306.185 166.202 306.046 166.664 305.954 167.219C305.954 167.866 305.954 168.744 305.954 169.854V312.963C305.954 314.35 305.954 315.459 305.954 316.291C306.046 317.123 306.231 317.77 306.508 318.232C306.786 318.695 307.248 319.018 307.895 319.203C308.635 319.388 309.698 319.48 311.084 319.48H437.692C439.079 319.48 440.373 319.48 441.575 319.48C442.776 319.48 443.84 319.342 444.764 319.064C445.781 318.787 446.567 318.325 447.121 317.678C447.676 317.031 447.954 316.014 447.954 314.627C447.954 313.518 447.676 312.639 447.121 311.992C446.567 311.438 445.781 311.021 444.764 310.744C443.84 310.467 442.776 310.328 441.575 310.328C440.373 310.328 439.079 310.328 437.692 310.328H317.741V249.59H436.998C439.032 249.59 440.743 249.312 442.129 248.758C443.516 248.203 444.209 247.001 444.209 245.152C444.209 243.118 443.608 241.778 442.407 241.131C441.297 240.484 439.818 240.16 437.969 240.16H317.741V174.152H437.969C439.356 174.152 440.65 174.152 441.852 174.152C443.054 174.152 444.117 174.014 445.041 173.736C446.058 173.459 446.844 172.997 447.399 172.35C447.954 171.795 448.231 170.963 448.231 169.854ZM606.206 247.648L674.987 316.568C676.836 318.417 678.685 319.342 680.534 319.342C681.828 319.342 682.845 318.88 683.585 317.955C684.417 317.031 684.833 315.921 684.833 314.627C684.833 313.887 684.648 313.055 684.278 312.131C683.908 311.206 683.307 310.328 682.475 309.496L613.417 240.854L683.723 175.4C684.925 174.291 685.757 173.135 686.22 171.934C686.774 170.824 687.052 169.807 687.052 168.883C687.052 167.773 686.682 166.849 685.942 166.109C685.295 165.37 684.417 165 683.307 165C681.274 165 679.101 166.109 676.79 168.328L606.206 234.059L535.622 168.189C534.235 166.895 533.033 166.017 532.016 165.555C530.999 165.185 530.029 165 529.104 165C527.902 165 526.932 165.324 526.192 165.971C525.545 166.71 525.221 167.635 525.221 168.744C525.221 170.87 526.377 173.043 528.688 175.262L598.995 240.854L529.936 309.496C528.272 311.16 527.44 312.87 527.44 314.627C527.44 315.921 527.856 317.031 528.688 317.955C529.52 318.88 530.583 319.342 531.878 319.342C533.727 319.342 535.576 318.417 537.425 316.568L606.206 247.648ZM963.036 242.518C963.036 227.726 961.095 215.384 957.212 205.492C953.329 195.6 947.551 187.65 939.878 181.641C932.205 175.632 922.637 171.333 911.173 168.744C899.802 166.248 886.582 165 871.513 165H776.107C774.72 165 773.657 165 772.917 165C772.27 165.092 771.762 165.277 771.392 165.555C771.022 165.924 770.791 166.433 770.698 167.08C770.698 167.727 770.698 168.652 770.698 169.854V314.35C770.698 315.736 770.698 316.753 770.698 317.4C770.791 318.14 771.022 318.648 771.392 318.926C771.762 319.203 772.316 319.342 773.056 319.342C773.888 319.434 774.997 319.48 776.384 319.48H871.513C886.582 319.48 899.802 318.186 911.173 315.598C922.637 313.009 932.205 308.664 939.878 302.562C947.551 296.553 953.329 288.649 957.212 278.85C961.095 269.05 963.036 256.939 963.036 242.518ZM951.249 242.518C951.249 254.443 949.909 264.659 947.228 273.164C944.547 281.762 940.109 288.788 933.915 294.242C927.721 299.789 919.54 303.857 909.37 306.445C899.201 309.034 886.582 310.328 871.513 310.328H782.486V174.152H871.513C886.582 174.152 899.201 175.447 909.37 178.035C919.54 180.624 927.721 184.645 933.915 190.1C940.109 195.646 944.547 202.719 947.228 211.316C949.909 220.007 951.249 230.407 951.249 242.518ZM1082.18 310.328H1032.68C1031.48 310.328 1030.27 310.328 1029.07 310.328C1027.87 310.328 1026.76 310.467 1025.74 310.744C1024.82 311.021 1024.03 311.438 1023.39 311.992C1022.83 312.639 1022.55 313.518 1022.55 314.627C1022.55 316.014 1022.88 317.031 1023.53 317.678C1024.17 318.325 1024.96 318.787 1025.88 319.064C1026.9 319.342 1028.01 319.48 1029.21 319.48C1030.41 319.48 1031.57 319.48 1032.68 319.48H1143.48C1144.86 319.48 1146.16 319.48 1147.36 319.48C1148.56 319.48 1149.58 319.342 1150.41 319.064C1151.33 318.787 1152.07 318.325 1152.63 317.678C1153.18 317.031 1153.46 316.106 1153.46 314.904C1153.46 313.61 1153.18 312.639 1152.63 311.992C1152.07 311.438 1151.33 311.021 1150.41 310.744C1149.58 310.467 1148.56 310.328 1147.36 310.328C1146.16 310.328 1144.86 310.328 1143.48 310.328H1093.97V174.152H1143.48C1144.86 174.152 1146.16 174.152 1147.36 174.152C1148.56 174.152 1149.58 174.014 1150.41 173.736C1151.33 173.459 1152.07 172.997 1152.63 172.35C1153.18 171.702 1153.46 170.778 1153.46 169.576C1153.46 168.282 1153.18 167.311 1152.63 166.664C1152.07 166.109 1151.33 165.693 1150.41 165.416C1149.58 165.139 1148.56 165 1147.36 165C1146.16 165 1144.86 165 1143.48 165H1032.68C1031.57 165 1030.41 165 1029.21 165C1028.01 165 1026.9 165.139 1025.88 165.416C1024.96 165.693 1024.17 166.156 1023.53 166.803C1022.88 167.45 1022.55 168.467 1022.55 169.854C1022.55 170.963 1022.83 171.795 1023.39 172.35C1024.03 172.997 1024.82 173.459 1025.74 173.736C1026.76 174.014 1027.87 174.152 1029.07 174.152C1030.27 174.152 1031.48 174.152 1032.68 174.152H1082.18V310.328ZM1288.55 312.408C1290.03 315.089 1291.19 316.938 1292.02 317.955C1292.85 318.972 1294.1 319.48 1295.77 319.48C1297.06 319.48 1298.17 318.972 1299.09 317.955C1300.11 317.031 1301.4 315.182 1302.98 312.408L1379.52 174.291C1380.54 172.442 1381.05 170.639 1381.05 168.883C1381.05 167.219 1380.59 165.924 1379.66 165C1378.74 164.076 1377.63 163.613 1376.33 163.613C1375.04 163.613 1373.75 164.076 1372.45 165C1371.25 165.832 1370 167.404 1368.71 169.715L1345.13 212.426H1246.4L1222.55 169.16C1221.53 167.219 1220.33 165.832 1218.94 165C1217.65 164.076 1216.35 163.613 1215.06 163.613C1213.49 163.613 1212.33 164.168 1211.59 165.277C1210.85 166.387 1210.48 167.866 1210.48 169.715C1210.48 170.454 1210.62 171.194 1210.9 171.934C1211.27 172.673 1211.68 173.505 1212.15 174.43L1288.55 312.408ZM1341.11 220.607L1295.77 303.395L1250.42 220.607H1341.11Z" fill="#00ADB5"/>
<path d="M72.541 309.773C72.541 310.975 72.5872 312.131 72.6797 313.24C72.8646 314.442 73.1882 315.505 73.6504 316.43C74.2051 317.354 74.8984 318.094 75.7305 318.648C76.6549 319.203 77.8105 319.48 79.1973 319.48C80.2142 319.48 81.0462 319.157 81.6934 318.51C82.3405 317.955 82.849 317.215 83.2188 316.291C83.681 315.367 83.9583 314.303 84.0508 313.102C84.2357 311.992 84.3281 310.883 84.3281 309.773V249.035H207.053V309.773C207.053 310.975 207.099 312.131 207.191 313.24C207.284 314.442 207.515 315.505 207.885 316.43C208.347 317.354 208.948 318.094 209.688 318.648C210.427 319.203 211.49 319.48 212.877 319.48C214.264 319.48 215.327 319.203 216.066 318.648C216.898 318.094 217.499 317.354 217.869 316.43C218.331 315.505 218.609 314.442 218.701 313.24C218.794 312.131 218.84 310.975 218.84 309.773V174.707C218.84 173.505 218.794 172.303 218.701 171.102C218.609 169.992 218.331 168.975 217.869 168.051C217.499 167.126 216.945 166.387 216.205 165.832C215.465 165.277 214.402 165 213.016 165C211.629 165 210.52 165.277 209.688 165.832C208.948 166.387 208.347 167.126 207.885 168.051C207.515 168.975 207.284 169.992 207.191 171.102C207.099 172.303 207.053 173.505 207.053 174.707V240.438H84.3281V174.707C84.3281 173.598 84.2357 172.442 84.0508 171.24C83.8659 170.131 83.5423 169.114 83.0801 168.189C82.7103 167.265 82.1556 166.479 81.416 165.832C80.7689 165.277 79.9368 165 78.9199 165C77.5332 165 76.3776 165.277 75.4531 165.832C74.6211 166.387 73.974 167.126 73.5117 168.051C73.1419 168.975 72.8646 169.992 72.6797 171.102C72.5872 172.303 72.541 173.505 72.541 174.707V309.773ZM448.231 169.854C448.231 168.467 448 167.45 447.538 166.803C447.075 166.156 446.428 165.693 445.596 165.416C444.857 165.139 443.932 165 442.823 165C441.713 165 440.465 165 439.079 165H309.559C308.635 165 307.941 165.046 307.479 165.139C307.017 165.231 306.647 165.462 306.37 165.832C306.185 166.202 306.046 166.664 305.954 167.219C305.954 167.866 305.954 168.744 305.954 169.854V312.963C305.954 314.35 305.954 315.459 305.954 316.291C306.046 317.123 306.231 317.77 306.508 318.232C306.786 318.695 307.248 319.018 307.895 319.203C308.635 319.388 309.698 319.48 311.084 319.48H437.692C439.079 319.48 440.373 319.48 441.575 319.48C442.776 319.48 443.84 319.342 444.764 319.064C445.781 318.787 446.567 318.325 447.121 317.678C447.676 317.031 447.954 316.014 447.954 314.627C447.954 313.518 447.676 312.639 447.121 311.992C446.567 311.438 445.781 311.021 444.764 310.744C443.84 310.467 442.776 310.328 441.575 310.328C440.373 310.328 439.079 310.328 437.692 310.328H317.741V249.59H436.998C439.032 249.59 440.743 249.312 442.129 248.758C443.516 248.203 444.209 247.001 444.209 245.152C444.209 243.118 443.608 241.778 442.407 241.131C441.297 240.484 439.818 240.16 437.969 240.16H317.741V174.152H437.969C439.356 174.152 440.65 174.152 441.852 174.152C443.054 174.152 444.117 174.014 445.041 173.736C446.058 173.459 446.844 172.997 447.399 172.35C447.954 171.795 448.231 170.963 448.231 169.854ZM606.206 247.648L674.987 316.568C676.836 318.417 678.685 319.342 680.534 319.342C681.828 319.342 682.845 318.88 683.585 317.955C684.417 317.031 684.833 315.921 684.833 314.627C684.833 313.887 684.648 313.055 684.278 312.131C683.908 311.206 683.307 310.328 682.475 309.496L613.417 240.854L683.723 175.4C684.925 174.291 685.757 173.135 686.22 171.934C686.774 170.824 687.052 169.807 687.052 168.883C687.052 167.773 686.682 166.849 685.942 166.109C685.295 165.37 684.417 165 683.307 165C681.274 165 679.101 166.109 676.79 168.328L606.206 234.059L535.622 168.189C534.235 166.895 533.033 166.017 532.016 165.555C530.999 165.185 530.029 165 529.104 165C527.902 165 526.932 165.324 526.192 165.971C525.545 166.71 525.221 167.635 525.221 168.744C525.221 170.87 526.377 173.043 528.688 175.262L598.995 240.854L529.936 309.496C528.272 311.16 527.44 312.87 527.44 314.627C527.44 315.921 527.856 317.031 528.688 317.955C529.52 318.88 530.583 319.342 531.878 319.342C533.727 319.342 535.576 318.417 537.425 316.568L606.206 247.648ZM963.036 242.518C963.036 227.726 961.095 215.384 957.212 205.492C953.329 195.6 947.551 187.65 939.878 181.641C932.205 175.632 922.637 171.333 911.173 168.744C899.802 166.248 886.582 165 871.513 165H776.107C774.72 165 773.657 165 772.917 165C772.27 165.092 771.762 165.277 771.392 165.555C771.022 165.924 770.791 166.433 770.698 167.08C770.698 167.727 770.698 168.652 770.698 169.854V314.35C770.698 315.736 770.698 316.753 770.698 317.4C770.791 318.14 771.022 318.648 771.392 318.926C771.762 319.203 772.316 319.342 773.056 319.342C773.888 319.434 774.997 319.48 776.384 319.48H871.513C886.582 319.48 899.802 318.186 911.173 315.598C922.637 313.009 932.205 308.664 939.878 302.562C947.551 296.553 953.329 288.649 957.212 278.85C961.095 269.05 963.036 256.939 963.036 242.518ZM951.249 242.518C951.249 254.443 949.909 264.659 947.228 273.164C944.547 281.762 940.109 288.788 933.915 294.242C927.721 299.789 919.54 303.857 909.37 306.445C899.201 309.034 886.582 310.328 871.513 310.328H782.486V174.152H871.513C886.582 174.152 899.201 175.447 909.37 178.035C919.54 180.624 927.721 184.645 933.915 190.1C940.109 195.646 944.547 202.719 947.228 211.316C949.909 220.007 951.249 230.407 951.249 242.518ZM1082.18 310.328H1032.68C1031.48 310.328 1030.27 310.328 1029.07 310.328C1027.87 310.328 1026.76 310.467 1025.74 310.744C1024.82 311.021 1024.03 311.438 1023.39 311.992C1022.83 312.639 1022.55 313.518 1022.55 314.627C1022.55 316.014 1022.88 317.031 1023.53 317.678C1024.17 318.325 1024.96 318.787 1025.88 319.064C1026.9 319.342 1028.01 319.48 1029.21 319.48C1030.41 319.48 1031.57 319.48 1032.68 319.48H1143.48C1144.86 319.48 1146.16 319.48 1147.36 319.48C1148.56 319.48 1149.58 319.342 1150.41 319.064C1151.33 318.787 1152.07 318.325 1152.63 317.678C1153.18 317.031 1153.46 316.106 1153.46 314.904C1153.46 313.61 1153.18 312.639 1152.63 311.992C1152.07 311.438 1151.33 311.021 1150.41 310.744C1149.58 310.467 1148.56 310.328 1147.36 310.328C1146.16 310.328 1144.86 310.328 1143.48 310.328H1093.97V174.152H1143.48C1144.86 174.152 1146.16 174.152 1147.36 174.152C1148.56 174.152 1149.58 174.014 1150.41 173.736C1151.33 173.459 1152.07 172.997 1152.63 172.35C1153.18 171.702 1153.46 170.778 1153.46 169.576C1153.46 168.282 1153.18 167.311 1152.63 166.664C1152.07 166.109 1151.33 165.693 1150.41 165.416C1149.58 165.139 1148.56 165 1147.36 165C1146.16 165 1144.86 165 1143.48 165H1032.68C1031.57 165 1030.41 165 1029.21 165C1028.01 165 1026.9 165.139 1025.88 165.416C1024.96 165.693 1024.17 166.156 1023.53 166.803C1022.88 167.45 1022.55 168.467 1022.55 169.854C1022.55 170.963 1022.83 171.795 1023.39 172.35C1024.03 172.997 1024.82 173.459 1025.74 173.736C1026.76 174.014 1027.87 174.152 1029.07 174.152C1030.27 174.152 1031.48 174.152 1032.68 174.152H1082.18V310.328ZM1288.55 312.408C1290.03 315.089 1291.19 316.938 1292.02 317.955C1292.85 318.972 1294.1 319.48 1295.77 319.48C1297.06 319.48 1298.17 318.972 1299.09 317.955C1300.11 317.031 1301.4 315.182 1302.98 312.408L1379.52 174.291C1380.54 172.442 1381.05 170.639 1381.05 168.883C1381.05 167.219 1380.59 165.924 1379.66 165C1378.74 164.076 1377.63 163.613 1376.33 163.613C1375.04 163.613 1373.75 164.076 1372.45 165C1371.25 165.832 1370 167.404 1368.71 169.715L1345.13 212.426H1246.4L1222.55 169.16C1221.53 167.219 1220.33 165.832 1218.94 165C1217.65 164.076 1216.35 163.613 1215.06 163.613C1213.49 163.613 1212.33 164.168 1211.59 165.277C1210.85 166.387 1210.48 167.866 1210.48 169.715C1210.48 170.454 1210.62 171.194 1210.9 171.934C1211.27 172.673 1211.68 173.505 1212.15 174.43L1288.55 312.408ZM1341.11 220.607L1295.77 303.395L1250.42 220.607H1341.11Z" fill="url(#paint0_linear_389_81)"/>
</g>
<defs>
<linearGradient id="paint0_linear_389_81" x1="720" y1="392" x2="720" y2="118" gradientUnits="userSpaceOnUse">
<stop offset="0.372973" stop-color="#222831"/>
<stop offset="0.759743" stop-opacity="0.12"/>
</linearGradient>
<clipPath id="clip0_389_81">
<rect width="1440" height="330" fill="white"/>
</clipPath>
</defs>
</svg>
