<svg width="901" height="313" viewBox="0 0 901 313" fill="none" xmlns="http://www.w3.org/2000/svg">
<path d="M156.675 57.3648L204.339 81.9288V32.8008L156.675 57.3648Z" fill="#90D9CF" stroke="#231F20" stroke-width="0.377333" stroke-miterlimit="10"/>
<path d="M156.675 106.493L204.339 81.9285L156.675 57.3645V106.493Z" fill="#6FCEBC" stroke="#231F20" stroke-width="0.377333" stroke-miterlimit="10"/>
<path d="M109.006 81.9285L156.673 106.493V57.3645L109.006 81.9285Z" fill="#67BAB5" stroke="#231F20" stroke-width="0.377333" stroke-miterlimit="10"/>
<path d="M109.006 32.8008V81.9288L156.673 57.3648L109.006 32.8008Z" fill="#58AEA1" stroke="#231F20" stroke-width="0.377333" stroke-miterlimit="10"/>
<path d="M156.676 8.23706L109.006 32.8011L156.676 57.3651V8.23706Z" fill="#4F9592" stroke="#231F20" stroke-width="0.377333" stroke-miterlimit="10"/>
<path d="M204.342 32.8011L156.675 8.23706V57.3651L204.342 32.8011Z" fill="#B6E7E5" stroke="#231F20" stroke-width="0.377333" stroke-miterlimit="10"/>
<path d="M204.476 131.043L252.243 155.74V106.347L204.476 131.043Z" fill="#6FCEBC" stroke="#231F20" stroke-width="0.377333" stroke-miterlimit="10"/>
<path d="M204.342 81.9292V131.057L252.009 106.493L204.342 81.9292Z" fill="#67BAB5" stroke="#231F20" stroke-width="0.377333" stroke-miterlimit="10"/>
<path d="M299.676 81.9285L252.009 57.3645V106.493L299.676 81.9285Z" fill="#4F9592" stroke="#231F20" stroke-width="0.377333" stroke-miterlimit="10"/>
<path d="M252.009 57.3645L204.342 81.9285L252.009 106.493V57.3645Z" fill="#58AEA1" stroke="#231F20" stroke-width="0.377333" stroke-miterlimit="10"/>
<path d="M299.676 131.057V81.9292L252.009 106.493L299.676 131.057Z" fill="#B6E7E5" stroke="#231F20" stroke-width="0.377333" stroke-miterlimit="10"/>
<path d="M252.009 106.493V155.621L299.676 131.057L252.009 106.493Z" fill="#90D9CF" stroke="#231F20" stroke-width="0.377333" stroke-miterlimit="10"/>
<path d="M299.676 180.185L252.009 155.621V204.746L299.676 180.185Z" fill="#58AEA1" stroke="#231F20" stroke-width="0.377333" stroke-miterlimit="10"/>
<path d="M299.676 229.31V180.185L252.009 204.746L299.676 229.31Z" fill="#4F9592" stroke="#231F20" stroke-width="0.377333" stroke-miterlimit="10"/>
<path d="M204.342 180.185V229.31L252.009 204.746L204.342 180.185Z" fill="#6FCEBC" stroke="#231F20" stroke-width="0.377333" stroke-miterlimit="10"/>
<path d="M204.342 180.185L252.009 204.746V155.621L204.342 180.185Z" fill="#67BAB5" stroke="#231F20" stroke-width="0.377333" stroke-miterlimit="10"/>
<path d="M252.009 253.875L299.676 229.311L252.009 204.747V253.875Z" fill="#B6E7E5" stroke="#231F20" stroke-width="0.377333" stroke-miterlimit="10"/>
<path d="M204.342 229.311L252.009 253.875V204.747L204.342 229.311Z" fill="#90D9CF" stroke="#231F20" stroke-width="0.377333" stroke-miterlimit="10"/>
<path d="M109.006 278.438L156.673 303.002V253.874L109.006 278.438Z" fill="#B6E7E5" stroke="#231F20" stroke-width="0.377333" stroke-miterlimit="10"/>
<path d="M109.006 229.31V278.438L156.673 253.874L109.006 229.31Z" fill="#90D9CF" stroke="#231F20" stroke-width="0.377333" stroke-miterlimit="10"/>
<path d="M156.676 204.747L109.006 229.311L156.676 253.875V204.747Z" fill="#6FCEBC" stroke="#231F20" stroke-width="0.377333" stroke-miterlimit="10"/>
<path d="M156.675 303.002L204.339 278.438L156.675 253.874V303.002Z" fill="#4F9592" stroke="#231F20" stroke-width="0.377333" stroke-miterlimit="10"/>
<path d="M156.675 253.875L204.339 229.311L156.675 204.747V253.875Z" fill="#67BAB5" stroke="#231F20" stroke-width="0.377333" stroke-miterlimit="10"/>
<path d="M204.342 278.438V229.31L156.675 253.874L204.342 278.438Z" fill="#58AEA1" stroke="#231F20" stroke-width="0.377333" stroke-miterlimit="10"/>
<path d="M13.6719 180.185V229.31L61.3387 204.746L13.6719 180.185Z" fill="#B6E7E5" stroke="#231F20" stroke-width="0.377333" stroke-miterlimit="10"/>
<path d="M13.6719 180.185L61.3387 204.746V155.621L13.6719 180.185Z" fill="#90D9CF" stroke="#231F20" stroke-width="0.377333" stroke-miterlimit="10"/>
<path d="M109.006 180.185L61.3389 155.621V204.746L109.006 180.185Z" fill="#6FCEBC" stroke="#231F20" stroke-width="0.377333" stroke-miterlimit="10"/>
<path d="M109.006 229.31V180.185L61.3389 204.746L109.006 229.31Z" fill="#67BAB5" stroke="#231F20" stroke-width="0.377333" stroke-miterlimit="10"/>
<path d="M13.6719 229.311L61.3387 253.875V204.747L13.6719 229.311Z" fill="#4F9592" stroke="#231F20" stroke-width="0.377333" stroke-miterlimit="10"/>
<path d="M61.3389 253.875L109.006 229.311L61.3389 204.747V253.875Z" fill="#58AEA1" stroke="#231F20" stroke-width="0.377333" stroke-miterlimit="10"/>
<path d="M61.3389 155.621L109.006 131.057L61.3389 106.52V155.621Z" fill="#67BAB5" stroke="#231F20" stroke-width="0.377333" stroke-miterlimit="10"/>
<path d="M61.3389 106.493V106.52L109.006 131.057V81.9292L61.3389 106.493Z" fill="#6FCEBC" stroke="#231F20" stroke-width="0.377333" stroke-miterlimit="10"/>
<path d="M13.6719 131.057L61.3387 155.621V106.52L13.6719 131.057Z" fill="#58AEA1" stroke="#231F20" stroke-width="0.377333" stroke-miterlimit="10"/>
<path d="M61.3387 106.493L13.6719 81.9292V131.057L61.3387 106.52V106.493Z" fill="#4F9592" stroke="#231F20" stroke-width="0.377333" stroke-miterlimit="10"/>
<path d="M61.3387 57.3645L13.6719 81.9285L61.3387 106.493V57.3645Z" fill="#B6E7E5" stroke="#231F20" stroke-width="0.377333" stroke-miterlimit="10"/>
<path d="M109.006 81.9285L61.3389 57.3645V106.493L109.006 81.9285Z" fill="#90D9CF" stroke="#231F20" stroke-width="0.377333" stroke-miterlimit="10"/>
<path d="M406.125 117.75H415.781V195H406.125V159.594H335.312V195H325.656V117.75H335.312V151.547H406.125V117.75ZM437.154 195V117.75H514.404V125.797H446.81V151.547H511.185V159.594H446.81V186.953H514.404V195H437.154ZM580.487 154.263L625.901 195H612.222L573.747 160.499L536.581 195H522.901L566.807 154.263L526.12 117.75H539.8L573.496 148.026L606.136 117.75H619.816L580.487 154.263ZM698.723 186.953C702.982 186.953 706.586 186.836 709.536 186.601C712.487 186.366 714.918 185.897 716.829 185.193C718.74 184.455 720.215 183.399 721.255 182.024C722.294 180.65 723.048 178.839 723.518 176.593C724.021 174.313 724.306 171.53 724.373 168.244C724.473 164.925 724.524 160.968 724.524 156.375C724.524 151.782 724.473 147.842 724.373 144.556C724.306 141.237 724.021 138.454 723.518 136.208C723.048 133.928 722.294 132.1 721.255 130.726C720.215 129.351 718.74 128.312 716.829 127.607C714.918 126.87 712.487 126.384 709.536 126.149C706.619 125.914 703.015 125.797 698.723 125.797H650.492V186.953H698.723ZM640.836 195V117.75H698.723C704.624 117.75 709.587 118.102 713.61 118.806C717.667 119.477 721.003 120.516 723.618 121.924C726.267 123.333 728.296 125.093 729.704 127.205C731.146 129.317 732.185 131.815 732.822 134.699C733.493 137.549 733.878 140.784 733.979 144.405C734.113 147.993 734.18 151.983 734.18 156.375C734.18 160.767 734.113 164.774 733.979 168.395C733.878 171.983 733.493 175.218 732.822 178.102C732.185 180.951 731.146 183.433 729.704 185.545C728.296 187.657 726.267 189.417 723.618 190.826C721.003 192.234 717.667 193.29 713.61 193.994C709.587 194.665 704.624 195 698.723 195H640.836ZM752.334 117.75H761.99V195H752.334V117.75ZM859.003 177.297H797.847L788.191 195H776.925L821.987 117.75H834.862L879.925 195H868.659L859.003 177.297ZM854.175 169.25L828.425 124.188L802.675 169.25H854.175Z" fill="url(#paint0_linear_475_2673)"/>
<path d="M406.125 117.75H415.781V195H406.125V159.594H335.312V195H325.656V117.75H335.312V151.547H406.125V117.75ZM437.154 195V117.75H514.404V125.797H446.81V151.547H511.185V159.594H446.81V186.953H514.404V195H437.154ZM580.487 154.263L625.901 195H612.222L573.747 160.499L536.581 195H522.901L566.807 154.263L526.12 117.75H539.8L573.496 148.026L606.136 117.75H619.816L580.487 154.263ZM698.723 186.953C702.982 186.953 706.586 186.836 709.536 186.601C712.487 186.366 714.918 185.897 716.829 185.193C718.74 184.455 720.215 183.399 721.255 182.024C722.294 180.65 723.048 178.839 723.518 176.593C724.021 174.313 724.306 171.53 724.373 168.244C724.473 164.925 724.524 160.968 724.524 156.375C724.524 151.782 724.473 147.842 724.373 144.556C724.306 141.237 724.021 138.454 723.518 136.208C723.048 133.928 722.294 132.1 721.255 130.726C720.215 129.351 718.74 128.312 716.829 127.607C714.918 126.87 712.487 126.384 709.536 126.149C706.619 125.914 703.015 125.797 698.723 125.797H650.492V186.953H698.723ZM640.836 195V117.75H698.723C704.624 117.75 709.587 118.102 713.61 118.806C717.667 119.477 721.003 120.516 723.618 121.924C726.267 123.333 728.296 125.093 729.704 127.205C731.146 129.317 732.185 131.815 732.822 134.699C733.493 137.549 733.878 140.784 733.979 144.405C734.113 147.993 734.18 151.983 734.18 156.375C734.18 160.767 734.113 164.774 733.979 168.395C733.878 171.983 733.493 175.218 732.822 178.102C732.185 180.951 731.146 183.433 729.704 185.545C728.296 187.657 726.267 189.417 723.618 190.826C721.003 192.234 717.667 193.29 713.61 193.994C709.587 194.665 704.624 195 698.723 195H640.836ZM752.334 117.75H761.99V195H752.334V117.75ZM859.003 177.297H797.847L788.191 195H776.925L821.987 117.75H834.862L879.925 195H868.659L859.003 177.297ZM854.175 169.25L828.425 124.188L802.675 169.25H854.175Z" fill="white"/>
<defs>
<linearGradient id="paint0_linear_475_2673" x1="600.5" y1="65" x2="600.5" y2="205" gradientUnits="userSpaceOnUse">
<stop/>
<stop offset="0.0752912" stop-color="white"/>
</linearGradient>
</defs>
</svg>
