<svg width="901" height="313" viewBox="0 0 901 313" fill="none" xmlns="http://www.w3.org/2000/svg">
<path d="M449.675 58.3648L497.339 82.9288V33.8008L449.675 58.3648Z" fill="#90D9CF" stroke="#231F20" stroke-width="0.377333" stroke-miterlimit="10"/>
<path d="M449.675 107.493L497.339 82.9285L449.675 58.3645V107.493Z" fill="#6FCEBC" stroke="#231F20" stroke-width="0.377333" stroke-miterlimit="10"/>
<path d="M402.006 82.9285L449.673 107.493V58.3645L402.006 82.9285Z" fill="#67BAB5" stroke="#231F20" stroke-width="0.377333" stroke-miterlimit="10"/>
<path d="M402.006 33.8008V82.9288L449.673 58.3648L402.006 33.8008Z" fill="#58AEA1" stroke="#231F20" stroke-width="0.377333" stroke-miterlimit="10"/>
<path d="M449.676 9.23706L402.006 33.8011L449.676 58.3651V9.23706Z" fill="#4F9592" stroke="#231F20" stroke-width="0.377333" stroke-miterlimit="10"/>
<path d="M497.342 33.8011L449.675 9.23706V58.3651L497.342 33.8011Z" fill="#B6E7E5" stroke="#231F20" stroke-width="0.377333" stroke-miterlimit="10"/>
<path d="M497.476 132.043L545.243 156.74V107.347L497.476 132.043Z" fill="#6FCEBC" stroke="#231F20" stroke-width="0.377333" stroke-miterlimit="10"/>
<path d="M497.342 82.9292V132.057L545.009 107.493L497.342 82.9292Z" fill="#67BAB5" stroke="#231F20" stroke-width="0.377333" stroke-miterlimit="10"/>
<path d="M592.676 82.9285L545.009 58.3645V107.493L592.676 82.9285Z" fill="#4F9592" stroke="#231F20" stroke-width="0.377333" stroke-miterlimit="10"/>
<path d="M545.009 58.3645L497.342 82.9285L545.009 107.493V58.3645Z" fill="#58AEA1" stroke="#231F20" stroke-width="0.377333" stroke-miterlimit="10"/>
<path d="M592.676 132.057V82.9292L545.009 107.493L592.676 132.057Z" fill="#B6E7E5" stroke="#231F20" stroke-width="0.377333" stroke-miterlimit="10"/>
<path d="M545.009 107.493V156.621L592.676 132.057L545.009 107.493Z" fill="#90D9CF" stroke="#231F20" stroke-width="0.377333" stroke-miterlimit="10"/>
<path d="M592.676 181.185L545.009 156.621V205.746L592.676 181.185Z" fill="#58AEA1" stroke="#231F20" stroke-width="0.377333" stroke-miterlimit="10"/>
<path d="M592.676 230.31V181.185L545.009 205.746L592.676 230.31Z" fill="#4F9592" stroke="#231F20" stroke-width="0.377333" stroke-miterlimit="10"/>
<path d="M497.342 181.185V230.31L545.009 205.746L497.342 181.185Z" fill="#6FCEBC" stroke="#231F20" stroke-width="0.377333" stroke-miterlimit="10"/>
<path d="M497.342 181.185L545.009 205.746V156.621L497.342 181.185Z" fill="#67BAB5" stroke="#231F20" stroke-width="0.377333" stroke-miterlimit="10"/>
<path d="M545.009 254.875L592.676 230.311L545.009 205.747V254.875Z" fill="#B6E7E5" stroke="#231F20" stroke-width="0.377333" stroke-miterlimit="10"/>
<path d="M497.342 230.311L545.009 254.875V205.747L497.342 230.311Z" fill="#90D9CF" stroke="#231F20" stroke-width="0.377333" stroke-miterlimit="10"/>
<path d="M402.006 279.438L449.673 304.002V254.874L402.006 279.438Z" fill="#B6E7E5" stroke="#231F20" stroke-width="0.377333" stroke-miterlimit="10"/>
<path d="M402.006 230.31V279.438L449.673 254.874L402.006 230.31Z" fill="#90D9CF" stroke="#231F20" stroke-width="0.377333" stroke-miterlimit="10"/>
<path d="M449.676 205.747L402.006 230.311L449.676 254.875V205.747Z" fill="#6FCEBC" stroke="#231F20" stroke-width="0.377333" stroke-miterlimit="10"/>
<path d="M449.675 304.002L497.339 279.438L449.675 254.874V304.002Z" fill="#4F9592" stroke="#231F20" stroke-width="0.377333" stroke-miterlimit="10"/>
<path d="M449.675 254.875L497.339 230.311L449.675 205.747V254.875Z" fill="#67BAB5" stroke="#231F20" stroke-width="0.377333" stroke-miterlimit="10"/>
<path d="M497.342 279.438V230.31L449.675 254.874L497.342 279.438Z" fill="#58AEA1" stroke="#231F20" stroke-width="0.377333" stroke-miterlimit="10"/>
<path d="M306.672 181.185V230.31L354.339 205.746L306.672 181.185Z" fill="#B6E7E5" stroke="#231F20" stroke-width="0.377333" stroke-miterlimit="10"/>
<path d="M306.672 181.185L354.339 205.746V156.621L306.672 181.185Z" fill="#90D9CF" stroke="#231F20" stroke-width="0.377333" stroke-miterlimit="10"/>
<path d="M402.006 181.185L354.339 156.621V205.746L402.006 181.185Z" fill="#6FCEBC" stroke="#231F20" stroke-width="0.377333" stroke-miterlimit="10"/>
<path d="M402.006 230.31V181.185L354.339 205.746L402.006 230.31Z" fill="#67BAB5" stroke="#231F20" stroke-width="0.377333" stroke-miterlimit="10"/>
<path d="M306.672 230.311L354.339 254.875V205.747L306.672 230.311Z" fill="#4F9592" stroke="#231F20" stroke-width="0.377333" stroke-miterlimit="10"/>
<path d="M354.339 254.875L402.006 230.311L354.339 205.747V254.875Z" fill="#58AEA1" stroke="#231F20" stroke-width="0.377333" stroke-miterlimit="10"/>
<path d="M354.339 156.621L402.006 132.057L354.339 107.52V156.621Z" fill="#67BAB5" stroke="#231F20" stroke-width="0.377333" stroke-miterlimit="10"/>
<path d="M354.339 107.493V107.52L402.006 132.057V82.9292L354.339 107.493Z" fill="#6FCEBC" stroke="#231F20" stroke-width="0.377333" stroke-miterlimit="10"/>
<path d="M306.672 132.057L354.339 156.621V107.52L306.672 132.057Z" fill="#58AEA1" stroke="#231F20" stroke-width="0.377333" stroke-miterlimit="10"/>
<path d="M354.339 107.493L306.672 82.9292V132.057L354.339 107.52V107.493Z" fill="#4F9592" stroke="#231F20" stroke-width="0.377333" stroke-miterlimit="10"/>
<path d="M354.339 58.3645L306.672 82.9285L354.339 107.493V58.3645Z" fill="#B6E7E5" stroke="#231F20" stroke-width="0.377333" stroke-miterlimit="10"/>
<path d="M402.006 82.9285L354.339 58.3645V107.493L402.006 82.9285Z" fill="#90D9CF" stroke="#231F20" stroke-width="0.377333" stroke-miterlimit="10"/>
<path d="M256.125 118.75H265.781V196H256.125V160.594H185.312V196H175.656V118.75H185.312V152.547H256.125V118.75ZM287.154 196V118.75H364.404V126.797H296.81V152.547H361.185V160.594H296.81V187.953H364.404V196H287.154ZM430.487 155.263L475.901 196H462.222L423.747 161.499L386.581 196H372.901L416.807 155.263L376.12 118.75H389.8L423.496 149.026L456.136 118.75H469.816L430.487 155.263ZM548.723 187.953C552.982 187.953 556.586 187.836 559.536 187.601C562.487 187.366 564.918 186.897 566.829 186.193C568.74 185.455 570.215 184.399 571.255 183.024C572.294 181.65 573.048 179.839 573.518 177.593C574.021 175.313 574.306 172.53 574.373 169.244C574.473 165.925 574.524 161.968 574.524 157.375C574.524 152.782 574.473 148.842 574.373 145.556C574.306 142.237 574.021 139.454 573.518 137.208C573.048 134.928 572.294 133.1 571.255 131.726C570.215 130.351 568.74 129.312 566.829 128.607C564.918 127.87 562.487 127.384 559.536 127.149C556.619 126.914 553.015 126.797 548.723 126.797H500.492V187.953H548.723ZM490.836 196V118.75H548.723C554.624 118.75 559.587 119.102 563.61 119.806C567.667 120.477 571.003 121.516 573.618 122.924C576.267 124.333 578.296 126.093 579.704 128.205C581.146 130.317 582.185 132.815 582.822 135.699C583.493 138.549 583.878 141.784 583.979 145.405C584.113 148.993 584.18 152.983 584.18 157.375C584.18 161.767 584.113 165.774 583.979 169.395C583.878 172.983 583.493 176.218 582.822 179.102C582.185 181.951 581.146 184.433 579.704 186.545C578.296 188.657 576.267 190.417 573.618 191.826C571.003 193.234 567.667 194.29 563.61 194.994C559.587 195.665 554.624 196 548.723 196H490.836ZM602.334 118.75H611.99V196H602.334V118.75ZM709.003 178.297H647.847L638.191 196H626.925L671.987 118.75H684.862L729.925 196H718.659L709.003 178.297ZM704.175 170.25L678.425 125.188L652.675 170.25H704.175Z" fill="url(#paint0_linear_477_2712)"/>
<path d="M256.125 118.75H265.781V196H256.125V160.594H185.312V196H175.656V118.75H185.312V152.547H256.125V118.75ZM287.154 196V118.75H364.404V126.797H296.81V152.547H361.185V160.594H296.81V187.953H364.404V196H287.154ZM430.487 155.263L475.901 196H462.222L423.747 161.499L386.581 196H372.901L416.807 155.263L376.12 118.75H389.8L423.496 149.026L456.136 118.75H469.816L430.487 155.263ZM548.723 187.953C552.982 187.953 556.586 187.836 559.536 187.601C562.487 187.366 564.918 186.897 566.829 186.193C568.74 185.455 570.215 184.399 571.255 183.024C572.294 181.65 573.048 179.839 573.518 177.593C574.021 175.313 574.306 172.53 574.373 169.244C574.473 165.925 574.524 161.968 574.524 157.375C574.524 152.782 574.473 148.842 574.373 145.556C574.306 142.237 574.021 139.454 573.518 137.208C573.048 134.928 572.294 133.1 571.255 131.726C570.215 130.351 568.74 129.312 566.829 128.607C564.918 127.87 562.487 127.384 559.536 127.149C556.619 126.914 553.015 126.797 548.723 126.797H500.492V187.953H548.723ZM490.836 196V118.75H548.723C554.624 118.75 559.587 119.102 563.61 119.806C567.667 120.477 571.003 121.516 573.618 122.924C576.267 124.333 578.296 126.093 579.704 128.205C581.146 130.317 582.185 132.815 582.822 135.699C583.493 138.549 583.878 141.784 583.979 145.405C584.113 148.993 584.18 152.983 584.18 157.375C584.18 161.767 584.113 165.774 583.979 169.395C583.878 172.983 583.493 176.218 582.822 179.102C582.185 181.951 581.146 184.433 579.704 186.545C578.296 188.657 576.267 190.417 573.618 191.826C571.003 193.234 567.667 194.29 563.61 194.994C559.587 195.665 554.624 196 548.723 196H490.836ZM602.334 118.75H611.99V196H602.334V118.75ZM709.003 178.297H647.847L638.191 196H626.925L671.987 118.75H684.862L729.925 196H718.659L709.003 178.297ZM704.175 170.25L678.425 125.188L652.675 170.25H704.175Z" fill="black"/>
<defs>
<linearGradient id="paint0_linear_477_2712" x1="450.5" y1="66" x2="450.5" y2="206" gradientUnits="userSpaceOnUse">
<stop/>
<stop offset="0.0752912" stop-color="white"/>
</linearGradient>
</defs>
</svg>
