<svg width="901" height="313" viewBox="0 0 901 313" fill="none" xmlns="http://www.w3.org/2000/svg">
<path d="M156.675 57.3648L204.339 81.9288V32.8008L156.675 57.3648Z" fill="#90D9CF" stroke="#231F20" stroke-width="0.377333" stroke-miterlimit="10"/>
<path d="M156.675 106.493L204.339 81.9285L156.675 57.3645V106.493Z" fill="#6FCEBC" stroke="#231F20" stroke-width="0.377333" stroke-miterlimit="10"/>
<path d="M109.006 81.9285L156.673 106.493V57.3645L109.006 81.9285Z" fill="#67BAB5" stroke="#231F20" stroke-width="0.377333" stroke-miterlimit="10"/>
<path d="M109.006 32.8008V81.9288L156.673 57.3648L109.006 32.8008Z" fill="#58AEA1" stroke="#231F20" stroke-width="0.377333" stroke-miterlimit="10"/>
<path d="M156.676 8.23712L109.006 32.8011L156.676 57.3652V8.23712Z" fill="#4F9592" stroke="#231F20" stroke-width="0.377333" stroke-miterlimit="10"/>
<path d="M204.342 32.8011L156.675 8.23712V57.3652L204.342 32.8011Z" fill="#B6E7E5" stroke="#231F20" stroke-width="0.377333" stroke-miterlimit="10"/>
<path d="M204.476 131.043L252.243 155.74V106.347L204.476 131.043Z" fill="#6FCEBC" stroke="#231F20" stroke-width="0.377333" stroke-miterlimit="10"/>
<path d="M204.342 81.9292V131.057L252.009 106.493L204.342 81.9292Z" fill="#67BAB5" stroke="#231F20" stroke-width="0.377333" stroke-miterlimit="10"/>
<path d="M299.676 81.9285L252.009 57.3645V106.493L299.676 81.9285Z" fill="#4F9592" stroke="#231F20" stroke-width="0.377333" stroke-miterlimit="10"/>
<path d="M252.009 57.3645L204.342 81.9285L252.009 106.493V57.3645Z" fill="#58AEA1" stroke="#231F20" stroke-width="0.377333" stroke-miterlimit="10"/>
<path d="M299.676 131.057V81.9292L252.009 106.493L299.676 131.057Z" fill="#B6E7E5" stroke="#231F20" stroke-width="0.377333" stroke-miterlimit="10"/>
<path d="M252.009 106.493V155.621L299.676 131.057L252.009 106.493Z" fill="#90D9CF" stroke="#231F20" stroke-width="0.377333" stroke-miterlimit="10"/>
<path d="M299.676 180.185L252.009 155.621V204.747L299.676 180.185Z" fill="#58AEA1" stroke="#231F20" stroke-width="0.377333" stroke-miterlimit="10"/>
<path d="M299.676 229.31V180.185L252.009 204.746L299.676 229.31Z" fill="#4F9592" stroke="#231F20" stroke-width="0.377333" stroke-miterlimit="10"/>
<path d="M204.342 180.185V229.31L252.009 204.746L204.342 180.185Z" fill="#6FCEBC" stroke="#231F20" stroke-width="0.377333" stroke-miterlimit="10"/>
<path d="M204.342 180.185L252.009 204.747V155.621L204.342 180.185Z" fill="#67BAB5" stroke="#231F20" stroke-width="0.377333" stroke-miterlimit="10"/>
<path d="M252.009 253.875L299.676 229.311L252.009 204.747V253.875Z" fill="#B6E7E5" stroke="#231F20" stroke-width="0.377333" stroke-miterlimit="10"/>
<path d="M204.342 229.311L252.009 253.875V204.747L204.342 229.311Z" fill="#90D9CF" stroke="#231F20" stroke-width="0.377333" stroke-miterlimit="10"/>
<path d="M109.006 278.438L156.673 303.002V253.874L109.006 278.438Z" fill="#B6E7E5" stroke="#231F20" stroke-width="0.377333" stroke-miterlimit="10"/>
<path d="M109.006 229.31V278.438L156.673 253.874L109.006 229.31Z" fill="#90D9CF" stroke="#231F20" stroke-width="0.377333" stroke-miterlimit="10"/>
<path d="M156.676 204.747L109.006 229.311L156.676 253.875V204.747Z" fill="#6FCEBC" stroke="#231F20" stroke-width="0.377333" stroke-miterlimit="10"/>
<path d="M156.675 303.002L204.339 278.438L156.675 253.874V303.002Z" fill="#4F9592" stroke="#231F20" stroke-width="0.377333" stroke-miterlimit="10"/>
<path d="M156.675 253.875L204.339 229.311L156.675 204.747V253.875Z" fill="#67BAB5" stroke="#231F20" stroke-width="0.377333" stroke-miterlimit="10"/>
<path d="M204.342 278.438V229.31L156.675 253.874L204.342 278.438Z" fill="#58AEA1" stroke="#231F20" stroke-width="0.377333" stroke-miterlimit="10"/>
<path d="M13.6719 180.185V229.31L61.3387 204.746L13.6719 180.185Z" fill="#B6E7E5" stroke="#231F20" stroke-width="0.377333" stroke-miterlimit="10"/>
<path d="M13.6719 180.185L61.3387 204.747V155.621L13.6719 180.185Z" fill="#90D9CF" stroke="#231F20" stroke-width="0.377333" stroke-miterlimit="10"/>
<path d="M109.006 180.185L61.3389 155.621V204.747L109.006 180.185Z" fill="#6FCEBC" stroke="#231F20" stroke-width="0.377333" stroke-miterlimit="10"/>
<path d="M109.006 229.31V180.185L61.3389 204.746L109.006 229.31Z" fill="#67BAB5" stroke="#231F20" stroke-width="0.377333" stroke-miterlimit="10"/>
<path d="M13.6719 229.311L61.3387 253.875V204.747L13.6719 229.311Z" fill="#4F9592" stroke="#231F20" stroke-width="0.377333" stroke-miterlimit="10"/>
<path d="M61.3389 253.875L109.006 229.311L61.3389 204.747V253.875Z" fill="#58AEA1" stroke="#231F20" stroke-width="0.377333" stroke-miterlimit="10"/>
<path d="M61.3389 155.621L109.006 131.057L61.3389 106.52V155.621Z" fill="#67BAB5" stroke="#231F20" stroke-width="0.377333" stroke-miterlimit="10"/>
<path d="M61.3389 106.493V106.52L109.006 131.057V81.9292L61.3389 106.493Z" fill="#6FCEBC" stroke="#231F20" stroke-width="0.377333" stroke-miterlimit="10"/>
<path d="M13.6719 131.057L61.3387 155.621V106.52L13.6719 131.057Z" fill="#58AEA1" stroke="#231F20" stroke-width="0.377333" stroke-miterlimit="10"/>
<path d="M61.3387 106.493L13.6719 81.9292V131.057L61.3387 106.52V106.493Z" fill="#4F9592" stroke="#231F20" stroke-width="0.377333" stroke-miterlimit="10"/>
<path d="M61.3387 57.3645L13.6719 81.9285L61.3387 106.493V57.3645Z" fill="#B6E7E5" stroke="#231F20" stroke-width="0.377333" stroke-miterlimit="10"/>
<path d="M109.006 81.9285L61.3389 57.3645V106.493L109.006 81.9285Z" fill="#90D9CF" stroke="#231F20" stroke-width="0.377333" stroke-miterlimit="10"/>
<path d="M344.325 207V106.283H364.861V148.412H406.688V106.283H427.073V207H406.688V165.475H364.861V207H344.325Z" fill="#4F9592"/>
<path d="M449.325 207V106.283H516.822V122.742H469.861V148.261H510.631V164.871H469.861V190.541H516.822V207H449.325Z" fill="#58AEA1"/>
<path d="M629.64 207H604.423L535.114 106.283H560.482L629.64 207ZM581.622 144.939L605.782 106.283H628.734L592.645 160.492L581.622 144.939ZM585.699 163.663L558.368 207H535.567L574.072 149.922L585.699 163.663Z" fill="#67BAB5"/>
<path d="M649.325 207V106.283H687.226C703.937 106.283 716.268 110.511 724.221 118.967C732.274 127.423 736.301 139.956 736.301 156.566C736.301 173.176 732.274 185.759 724.221 194.316C716.268 202.772 703.937 207 687.226 207H649.325ZM669.861 190.541H684.961C695.128 190.541 702.729 187.873 707.762 182.538C712.795 177.102 715.312 168.445 715.312 156.566C715.312 144.788 712.795 136.181 707.762 130.745C702.729 125.309 695.128 122.591 684.961 122.591H669.861V190.541Z" fill="#6FCEBC"/>
<path d="M754.222 205V104.283H774.758V205H754.222Z" fill="#90D9CF"/>
<path d="M789.265 205L827.921 104.283H850.118L886.962 205H865.822L832.904 111.229L841.964 110.474L809.046 205H789.265ZM809.65 180.387L814.482 164.683H861.443L863.104 180.387H809.65Z" fill="#B6E7E5"/>
</svg>
